<svg width="40" height="40" viewBox="0 0 40 40" fill="none" xmlns="http://www.w3.org/2000/svg">
<rect width="40" height="40" fill="white"/>
<path d="M33.8612 19.7325C33.8612 18.8686 33.518 18.04 32.9071 17.4291C32.2962 16.8182 31.4677 16.475 30.6037 16.475C30.4875 16.475 30.3737 16.4813 30.2612 16.4925L34.7362 3.29626H15.7212L20.1887 16.4813C20.1237 16.4813 20.0575 16.475 19.9912 16.475C19.2143 16.4757 18.4632 16.754 17.8734 17.2597C17.2835 17.7653 16.8938 18.4651 16.7743 19.2327C16.6549 20.0004 16.8136 20.7855 17.2219 21.4465C17.6303 22.1074 18.2613 22.6008 19.0012 22.8375C18.3084 24.0307 17.4456 25.1166 16.44 26.0613C15.1313 27.3122 13.5767 28.2772 11.875 28.895C10.9215 28.4428 10.1757 27.6447 9.7892 26.6627C9.40267 25.6807 9.40429 24.5884 9.79374 23.6075C9.88999 23.3825 9.98749 23.155 10.0812 22.9275C10.8079 22.7565 11.4539 22.3413 11.9112 21.7512C12.3685 21.1612 12.6094 20.4321 12.5938 19.6857C12.5781 18.9394 12.3067 18.221 11.825 17.6507C11.3433 17.0804 10.6805 16.6926 9.94728 16.5523C9.21407 16.412 8.45491 16.5276 7.79667 16.8797C7.13843 17.2318 6.62099 17.7992 6.33082 18.4871C6.04066 19.1749 5.99535 19.9414 6.20246 20.6587C6.40958 21.3759 6.85657 22.0003 7.46874 22.4275C6.42817 24.313 5.63457 26.3245 5.10749 28.4125C4.66499 31.0813 5.10749 33.9125 7.41374 35.5138C12.7887 39.24 18.625 33.2038 24.7775 31.6875C27.0075 31.1375 29.455 31.2263 31.4187 30.0875C32.1286 29.6839 32.7407 29.1288 33.2115 28.4616C33.6823 27.7944 34.0002 27.0316 34.1425 26.2275C34.273 25.4617 34.2483 24.6775 34.0698 23.9215C33.8914 23.1654 33.5629 22.4529 33.1037 21.8263C33.5938 21.2406 33.862 20.5011 33.8612 19.7375V19.7325ZM23.25 19.75V19.7388C23.2503 19.1783 23.106 18.6272 22.8309 18.1389C22.5559 17.6506 22.1595 17.2415 21.68 16.9513L25.235 9.75001L28.7975 17.0175C28.3506 17.3145 27.9841 17.7175 27.7309 18.1906C27.4777 18.6637 27.3455 19.1922 27.3462 19.7288C27.3462 19.7525 27.3462 19.7763 27.3462 19.8L23.25 19.75Z" fill="#99425B"/>
</svg>
