<svg width="45" height="40" viewBox="0 0 45 40" fill="none" xmlns="http://www.w3.org/2000/svg">
<path fill-rule="evenodd" clip-rule="evenodd" d="M9.4494 27.4558C8.60085 30.885 7.5342 37.2439 11.2944 39.3998C15.0371 41.5462 19.9074 37.4332 22.4791 34.9643C25.0434 37.4086 30.0506 41.504 33.8076 39.3413C37.5487 37.1876 36.395 30.9342 35.5276 27.4835C39.0175 26.4978 45 24.3748 45 20.0371C45 15.7117 39.0238 13.4018 35.5545 12.4171C36.4251 8.94739 37.5211 2.78323 33.7751 0.634312C30.0041 -1.528 25.0125 2.47 22.4169 4.96585C19.8286 2.48246 15.0051 -1.54169 11.2617 0.613232C7.5066 2.77493 8.4846 9.04862 9.35205 12.5192C5.98905 13.5062 0 15.7657 0 20.0371C0 24.3331 6.01455 26.4734 9.4494 27.4558ZM9.8757 14.3585C10.4452 16.1514 11.214 18.058 12.1544 20.0275C11.2567 21.9506 10.5178 23.8326 9.9642 25.614C7.44615 24.888 1.92225 23.2288 1.92225 20.0371C1.92225 16.8154 7.2231 15.1405 9.8757 14.3585ZM12.225 2.2677C15.018 0.660004 19.1669 4.50831 21.0783 6.33708C19.8102 7.71631 18.543 9.31969 17.3063 11.1002C15.1307 11.292 13.0755 11.6058 11.2116 12.0343C10.6011 9.57939 9.4197 3.88262 12.225 2.2677ZM32.8146 2.29062C35.6079 3.89231 34.3311 9.39293 33.6906 11.9488C31.8475 11.5432 29.8071 11.2515 27.6264 11.0757C26.3815 9.33354 25.0776 7.73215 23.7636 6.32969C25.387 4.768 30.0083 0.681538 32.8146 2.29062ZM43.0778 20.0371C43.0778 23.2708 37.5869 24.918 35.0114 25.6422C34.4482 23.8208 33.7096 21.9163 32.8182 19.9905C33.7211 18.036 34.4703 16.1014 35.0387 14.2585C37.4945 14.9575 43.0778 16.8014 43.0778 20.0371ZM32.8444 37.6869C30.0398 39.3013 25.688 35.3695 23.8261 33.5998C25.1334 32.2038 26.4254 30.6145 27.6595 28.8823C29.7759 28.6872 31.8019 28.374 33.6644 27.9543C34.3631 30.7374 35.6461 36.0742 32.8444 37.6869ZM15.9311 26.8045C14.4953 26.6243 13.1196 26.3846 11.8279 26.0914C12.2157 24.8554 12.699 23.5629 13.2683 22.238C14.0934 23.7949 14.9792 25.3206 15.9311 26.8045ZM22.4785 32.2337C21.5919 31.2785 20.7039 30.2118 19.8303 29.0546C21.6022 29.138 23.3771 29.1383 25.149 29.0558C24.2747 30.2023 23.379 31.2674 22.4785 32.2337ZM31.7153 22.2394C32.2751 23.5597 32.754 24.8578 33.1452 26.1115C31.8612 26.3972 30.492 26.6308 29.0655 26.808C30.0201 25.3274 30.9044 23.8023 31.7153 22.2394ZM29.0245 13.1297C30.4981 13.2932 31.8881 13.5149 33.1717 13.7928C32.7743 15.0685 32.2848 16.3946 31.7131 17.7434C30.891 16.1642 29.9932 14.6243 29.0245 13.1297ZM22.4253 7.70539C23.3364 8.68308 24.2453 9.76446 25.1328 10.9275C23.3508 10.858 21.5653 10.8578 19.7835 10.9369C20.6598 9.75262 21.5446 8.66969 22.4253 7.70539ZM13.25 17.812C12.6484 16.4486 12.1414 15.1297 11.7387 13.8755C13.0436 13.5794 14.4522 13.3409 15.9365 13.1638C14.9775 14.6758 14.0777 16.2252 13.25 17.812ZM18.3791 12.9322C21.1049 12.7385 23.8476 12.7406 26.5743 12.9163C28.1236 15.1669 29.5029 17.5338 30.6935 19.9911C29.5086 22.4432 28.1394 24.8055 26.5974 27.0526C23.8687 27.2577 21.1233 27.2583 18.3946 27.0514C16.8659 24.8045 15.4987 22.4483 14.2864 20.0183C15.4844 17.5674 16.8608 15.2003 18.3791 12.9322ZM12.2546 37.7437C9.4491 36.1346 10.6978 30.4196 11.3108 27.9345C13.1777 28.3629 15.2051 28.6817 17.3276 28.8798C18.5642 30.6307 19.8453 32.2228 21.1314 33.6008C19.2458 35.4086 15.0329 39.3371 12.2546 37.7437Z" fill="#53C1DE"/>
</svg>
