<svg width="40" height="40" viewBox="0 0 40 40" fill="none" xmlns="http://www.w3.org/2000/svg">
<path fill-rule="evenodd" clip-rule="evenodd" d="M28.2059 5.82886C28.8614 6.48293 29.6042 7.22376 29.6042 7.22376C29.6042 7.22376 32.6628 7.45123 32.807 7.46373C32.9526 7.47623 33.1279 7.5875 33.1553 7.78875C33.1827 7.99 37.5 37.3263 37.5 37.3263L26.9059 39.6292L28.2059 5.82886ZM26.5808 4.71766C26.4996 4.72817 26.4292 4.7442 26.3802 4.75876C26.3541 4.76626 25.9163 4.90251 25.1911 5.12751C24.4809 3.07501 23.2283 1.18876 21.0255 1.18876C20.9646 1.18876 20.9011 1.19127 20.839 1.19502C20.2121 0.362517 19.4359 0 18.7655 0C13.6322 0 11.1794 6.45001 10.4107 9.72626C8.41563 10.3475 6.99892 10.7888 6.81857 10.8463C5.7041 11.1975 5.66927 11.2325 5.52375 12.2863C5.41305 13.085 2.5 35.7263 2.5 35.7263L25.1998 40L25.2239 39.9948L26.5808 4.71766ZM20.671 6.31002C20.671 6.38877 20.6698 6.46126 20.6698 6.53376C19.4198 6.92251 18.0627 7.34501 16.702 7.76876C17.4657 4.80626 18.8973 3.37498 20.1499 2.83498C20.4646 3.62998 20.671 4.77127 20.671 6.31002ZM18.6237 1.38377C18.8464 1.38377 19.069 1.46001 19.2829 1.60751C17.6374 2.38501 15.8749 4.345 15.1298 8.2575C14.0415 8.59625 12.978 8.9275 11.9941 9.23375C12.866 6.24875 14.937 1.38377 18.6237 1.38377ZM19.5081 18.8275C19.5081 18.8275 18.1797 18.115 16.5515 18.115C14.1633 18.115 14.0427 19.6213 14.0427 20C14.0427 22.0712 19.4135 22.865 19.4135 27.715C19.4135 31.53 17.0055 33.9875 13.7579 33.9875C9.86095 33.9875 7.86835 31.55 7.86835 31.55L8.91192 28.0862C8.91192 28.0862 10.9605 29.8538 12.6894 29.8538C13.8176 29.8538 14.2778 28.96 14.2778 28.3075C14.2778 25.6062 9.87091 25.485 9.87091 21.0462C9.87091 17.3112 12.5389 13.6962 17.9247 13.6962C19.9994 13.6962 21.0255 14.2938 21.0255 14.2938L19.5081 18.8275ZM22.0156 6.11501C22.0156 5.97876 22.0169 5.845 22.0169 5.69875C22.0169 4.42375 21.8402 3.39625 21.5579 2.5825C22.6935 2.725 23.4497 4.02373 23.9361 5.51748C23.3664 5.69498 22.7184 5.89626 22.0156 6.11501Z" fill="#81BF37"/>
</svg>
