<svg width="32" height="40" viewBox="0 0 32 40" fill="none" xmlns="http://www.w3.org/2000/svg">
<path d="M1.23652 36.8587L0.00146598 3.84182C-0.0393229 2.7514 0.794026 1.82728 1.87951 1.75921L29.8705 0.00401522C30.9754 -0.0652682 31.9271 0.777211 31.9961 1.88575C31.9987 1.92751 32 1.96935 32 2.01119V37.9889C32 39.0996 31.1026 40 29.9955 40C29.9655 40 29.9356 39.9994 29.9056 39.998L3.14966 38.7924C2.10762 38.7454 1.27564 37.9045 1.23652 36.8587Z" fill="#FF4785"/>
<mask id="mask0_105_586" style="mask-type:luminance" maskUnits="userSpaceOnUse" x="0" y="0" width="32" height="40">
<path d="M1.23652 36.8587L0.00146598 3.84182C-0.0393229 2.7514 0.794026 1.82728 1.87951 1.75921L29.8705 0.00401522C30.9754 -0.0652682 31.9271 0.777211 31.9961 1.88575C31.9987 1.92751 32 1.96935 32 2.01119V37.9889C32 39.0996 31.1026 40 29.9955 40C29.9655 40 29.9356 39.9994 29.9056 39.998L3.14966 38.7924C2.10762 38.7454 1.27564 37.9045 1.23652 36.8587Z" fill="white"/>
</mask>
<g mask="url(#mask0_105_586)">
<path d="M23.6296 4.91667L23.8208 0.303054L27.6648 3.05176e-05L27.8304 4.75789C27.8362 4.92347 27.707 5.0624 27.542 5.06818C27.4713 5.07065 27.4021 5.04792 27.3465 5.00402L25.8642 3.83242L24.1091 5.16814C23.9775 5.26828 23.7899 5.24244 23.6901 5.11044C23.6481 5.05487 23.6267 4.98635 23.6296 4.91667ZM18.7135 15.0766C18.7135 15.859 23.9666 15.484 24.6717 14.9344C24.6717 9.60622 21.8221 6.80634 16.604 6.80634C11.386 6.80634 8.46235 9.64978 8.46235 13.9149C8.46235 21.3434 18.4544 21.4856 18.4544 25.5375C18.4544 26.6749 17.8993 27.3502 16.6781 27.3502C15.0867 27.3502 14.4576 26.5348 14.5316 23.7625C14.5316 23.161 8.46235 22.9735 8.27731 23.7625C7.80613 30.4809 11.9781 32.4187 16.7521 32.4187C21.378 32.4187 25.0048 29.9448 25.0048 25.4664C25.0048 17.5048 14.8647 17.718 14.8647 13.7728C14.8647 12.1733 16.0489 11.9601 16.7521 11.9601C17.4922 11.9601 18.8245 12.091 18.7135 15.0766Z" fill="white"/>
</g>
</svg>
