<svg width="40" height="40" viewBox="0 0 40 40" fill="none" xmlns="http://www.w3.org/2000/svg">
<g clip-path="url(#clip0_105_585)">
<path d="M36.0938 0H3.90625C1.74889 0 0 1.74889 0 3.90625V36.0938C0 38.2511 1.74889 40 3.90625 40H36.0938C38.2511 40 40 38.2511 40 36.0938V3.90625C40 1.74889 38.2511 0 36.0938 0Z" fill="url(#paint0_linear_105_585)"/>
<path d="M32.925 5.20001H24.475C23.4395 5.20001 22.6 6.03948 22.6 7.07501V20.825C22.6 21.8605 23.4395 22.7 24.475 22.7H32.925C33.9605 22.7 34.8 21.8605 34.8 20.825V7.07501C34.8 6.03948 33.9605 5.20001 32.925 5.20001Z" fill="white"/>
<path d="M15.525 5.20001H7.075C6.03946 5.20001 5.2 6.03948 5.2 7.07501V30.825C5.2 31.8605 6.03946 32.7 7.075 32.7H15.525C16.5605 32.7 17.4 31.8605 17.4 30.825V7.07501C17.4 6.03948 16.5605 5.20001 15.525 5.20001Z" fill="white"/>
</g>
<defs>
<linearGradient id="paint0_linear_105_585" x1="2000" y1="0" x2="2000" y2="4000" gradientUnits="userSpaceOnUse">
<stop stop-color="#0091E6"/>
<stop offset="1" stop-color="#0079BF"/>
</linearGradient>
<clipPath id="clip0_105_585">
<rect width="40" height="40" fill="white"/>
</clipPath>
</defs>
</svg>
