<svg width="40" height="40" viewBox="0 0 40 40" fill="none" xmlns="http://www.w3.org/2000/svg">
<path d="M37.3545 7.68249L20.9273 37.0571C20.588 37.6635 19.7168 37.6671 19.3724 37.0636L2.6195 7.68524C2.2445 7.02749 2.80675 6.23086 3.552 6.36399L19.997 9.30349C20.1019 9.32224 20.2093 9.32207 20.3141 9.30299L36.4151 6.36824C37.1579 6.23286 37.723 7.02349 37.3545 7.68249Z" fill="url(#paint0_linear_105_600)"/>
<path d="M27.8305 2.50863L15.6739 4.89063C15.5767 4.90964 15.4887 4.96041 15.4235 5.03494C15.3584 5.10948 15.3198 5.20356 15.314 5.30238L14.5663 17.9321C14.5488 18.2296 14.8219 18.4605 15.1121 18.3935L18.4968 17.6125C18.8135 17.5394 19.0996 17.8184 19.0345 18.1368L18.029 23.0609C17.9613 23.3921 18.2724 23.6756 18.596 23.5774L20.6865 22.9421C21.0106 22.8438 21.322 23.128 21.2535 23.4596L19.6555 31.1943C19.5555 31.678 20.199 31.9418 20.4674 31.527L20.6466 31.25L30.5525 11.481C30.7184 11.15 30.4325 10.7726 30.0688 10.8428L26.585 11.5151C26.2575 11.5783 25.979 11.2734 26.0714 10.953L28.3453 3.07051C28.4378 2.74951 28.1583 2.44438 27.8305 2.50863Z" fill="url(#paint1_linear_105_600)"/>
<defs>
<linearGradient id="paint0_linear_105_600" x1="2.21042" y1="5.31405" x2="22.6544" y2="33.0786" gradientUnits="userSpaceOnUse">
<stop stop-color="#41D1FF"/>
<stop offset="1" stop-color="#BD34FE"/>
</linearGradient>
<linearGradient id="paint1_linear_105_600" x1="19.0522" y1="3.15525" x2="22.7504" y2="28.5246" gradientUnits="userSpaceOnUse">
<stop stop-color="#FFEA83"/>
<stop offset="0.0833" stop-color="#FFDD35"/>
<stop offset="1" stop-color="#FFA800"/>
</linearGradient>
</defs>
</svg>
