<svg width="173" height="61" viewBox="0 0 173 61" fill="none" xmlns="http://www.w3.org/2000/svg">
<path d="M24.896 60.48C19.8187 60.48 15.4027 59.5627 11.648 57.728C7.89333 55.8507 5.01333 53.2053 3.00799 49.792C1.00266 46.3787 -8.10623e-06 42.4107 -8.10623e-06 37.888C-8.10623e-06 31.616 1.17333 26.048 3.51999 21.184C5.90933 16.32 9.13066 12.5653 13.184 9.92C17.2373 7.232 21.7387 5.888 26.688 5.888C31.296 5.888 34.7947 7.08267 37.184 9.472C39.5733 11.8187 40.768 14.9333 40.768 18.816C40.768 21.4187 40.2987 23.5093 39.36 25.088C38.464 26.6667 37.1627 27.456 35.456 27.456C34.2613 27.456 33.3227 27.1787 32.64 26.624C31.9573 26.0693 31.616 25.2587 31.616 24.192C31.616 23.808 31.7013 23.104 31.872 22.08C32.128 20.8 32.256 19.776 32.256 19.008C32.256 15.1253 30.1867 13.184 26.048 13.184C23.232 13.184 20.544 14.1013 17.984 15.936C15.424 17.7707 13.3547 20.48 11.776 24.064C10.1973 27.6053 9.40799 31.8293 9.40799 36.736C9.40799 41.856 10.8373 45.824 13.696 48.64C16.5547 51.4133 20.7787 52.8 26.368 52.8C29.1413 52.8 31.936 52.4587 34.752 51.776C37.6107 51.0507 40.768 49.9627 44.224 48.512C44.864 48.256 45.3973 48.128 45.824 48.128C46.5067 48.128 47.0187 48.384 47.36 48.896C47.7013 49.408 47.872 50.0693 47.872 50.88C47.872 53.4827 46.464 55.4027 43.648 56.64C40.6187 57.9627 37.4613 58.944 34.176 59.584C30.9333 60.1813 27.84 60.48 24.896 60.48ZM47.395 60.48C45.7737 60.48 44.6217 59.6267 43.939 57.92C43.299 56.2133 42.979 53.4827 42.979 49.728C42.979 44.1813 43.7683 38.912 45.347 33.92C45.731 32.6827 46.3497 31.7867 47.203 31.232C48.099 30.6347 49.3363 30.336 50.915 30.336C51.7683 30.336 52.3657 30.4427 52.707 30.656C53.0483 30.8693 53.219 31.2747 53.219 31.872C53.219 32.5547 52.899 34.0907 52.259 36.48C51.8323 38.1867 51.491 39.68 51.235 40.96C50.979 42.24 50.7657 43.8187 50.595 45.696C52.003 42.0267 53.5817 39.04 55.331 36.736C57.0803 34.432 58.787 32.7893 60.451 31.808C62.1577 30.8267 63.715 30.336 65.123 30.336C67.8963 30.336 69.283 31.7227 69.283 34.496C69.283 35.0507 69.091 36.3947 68.707 38.528C68.3657 40.2347 68.195 41.3013 68.195 41.728C68.195 43.2213 68.7283 43.968 69.795 43.968C70.9897 43.968 72.5257 43.0293 74.403 41.152C74.9577 40.5973 75.5337 40.32 76.131 40.32C76.6857 40.32 77.1123 40.576 77.411 41.088C77.7523 41.5573 77.923 42.1973 77.923 43.008C77.923 44.5867 77.4963 45.824 76.643 46.72C75.4483 47.9573 74.0403 49.024 72.419 49.92C70.8403 50.7733 69.155 51.2 67.363 51.2C65.1017 51.2 63.3737 50.624 62.179 49.472C61.027 48.32 60.451 46.7627 60.451 44.8C60.451 44.16 60.515 43.52 60.643 42.88C60.7283 42.0267 60.771 41.4507 60.771 41.152C60.771 40.4693 60.5363 40.128 60.067 40.128C59.427 40.128 58.5737 40.8533 57.507 42.304C56.483 43.712 55.459 45.5893 54.435 47.936C53.411 50.2827 52.579 52.7573 51.939 55.36C51.4697 57.3653 50.915 58.7307 50.275 59.456C49.6777 60.1387 48.7177 60.48 47.395 60.48ZM100.52 45.888C101.075 45.888 101.501 46.144 101.8 46.656C102.141 47.168 102.312 47.872 102.312 48.768C102.312 50.4747 101.907 51.7973 101.096 52.736C99.5173 54.656 97.2773 56.4267 94.376 58.048C91.5173 59.6693 88.4453 60.48 85.16 60.48C80.68 60.48 77.2027 59.264 74.728 56.832C72.2533 54.4 71.016 51.072 71.016 46.848C71.016 43.904 71.6347 41.1733 72.872 38.656C74.1093 36.096 75.816 34.0693 77.992 32.576C80.2107 31.0827 82.7067 30.336 85.48 30.336C87.9547 30.336 89.9387 31.0827 91.432 32.576C92.9253 34.0267 93.672 36.0107 93.672 38.528C93.672 41.472 92.6053 44.0107 90.472 46.144C88.3813 48.2347 84.8187 49.8987 79.784 51.136C80.8507 53.0987 82.8773 54.08 85.864 54.08C87.784 54.08 89.96 53.4187 92.392 52.096C94.8667 50.7307 97 48.96 98.792 46.784C99.304 46.1867 99.88 45.888 100.52 45.888ZM84.392 36.608C82.8133 36.608 81.4693 37.5253 80.36 39.36C79.2933 41.1947 78.76 43.4133 78.76 46.016V46.144C81.2773 45.5467 83.2613 44.6507 84.712 43.456C86.1627 42.2613 86.888 40.8747 86.888 39.296C86.888 38.4853 86.6533 37.8453 86.184 37.376C85.7573 36.864 85.16 36.608 84.392 36.608ZM86.056 26.112C85.4587 26.112 84.9253 25.8987 84.456 25.472C84.0293 25.0027 83.816 24.448 83.816 23.808C83.816 23.5093 83.9227 23.104 84.136 22.592L90.088 9.28C90.472 8.42667 90.9627 7.808 91.56 7.424C92.2 6.99733 92.904 6.784 93.672 6.784C94.7387 6.784 95.6773 7.168 96.488 7.936C97.3413 8.704 97.768 9.664 97.768 10.816C97.768 12.0107 97.2987 13.2053 96.36 14.4L88.104 25.024C87.5493 25.7493 86.8667 26.112 86.056 26.112ZM104.66 60.48C102.015 60.48 99.9032 59.52 98.3245 57.6C96.7458 55.68 95.9565 53.1627 95.9565 50.048C95.9565 46.6347 96.7458 43.4133 98.3245 40.384C99.9032 37.312 101.994 34.8587 104.596 33.024C107.242 31.1467 110.036 30.208 112.98 30.208C113.919 30.208 114.538 30.4 114.836 30.784C115.178 31.1253 115.455 31.7653 115.668 32.704C116.564 32.5333 117.503 32.448 118.484 32.448C120.575 32.448 121.62 33.1947 121.62 34.688C121.62 35.584 121.3 37.7173 120.66 41.088C119.679 45.9947 119.188 49.408 119.188 51.328C119.188 51.968 119.338 52.48 119.636 52.864C119.978 53.248 120.404 53.44 120.916 53.44C121.727 53.44 122.708 52.928 123.86 51.904C125.012 50.8373 126.57 49.1307 128.532 46.784C129.044 46.1867 129.62 45.888 130.26 45.888C130.815 45.888 131.242 46.144 131.54 46.656C131.882 47.168 132.052 47.872 132.052 48.768C132.052 50.4747 131.647 51.7973 130.836 52.736C129.087 54.912 127.231 56.7467 125.268 58.24C123.306 59.7333 121.407 60.48 119.572 60.48C118.164 60.48 116.863 60.0107 115.668 59.072C114.516 58.0907 113.642 56.768 113.044 55.104C110.826 58.688 108.031 60.48 104.66 60.48ZM106.964 54.016C107.903 54.016 108.799 53.4613 109.652 52.352C110.506 51.2427 111.124 49.7707 111.508 47.936L113.876 36.16C112.084 36.2027 110.42 36.8853 108.884 38.208C107.391 39.488 106.196 41.1947 105.3 43.328C104.404 45.4613 103.956 47.7227 103.956 50.112C103.956 51.4347 104.212 52.416 104.724 53.056C105.279 53.696 106.026 54.016 106.964 54.016ZM151.107 45.888C151.662 45.888 152.088 46.144 152.387 46.656C152.728 47.168 152.899 47.872 152.899 48.768C152.899 50.4747 152.494 51.7973 151.683 52.736C149.848 54.9973 147.843 56.8533 145.667 58.304C143.534 59.7547 141.102 60.48 138.371 60.48C134.616 60.48 131.822 58.7733 129.987 55.36C128.195 51.9467 127.299 47.5307 127.299 42.112C127.299 36.9067 127.96 30.976 129.283 24.32C130.648 17.664 132.632 11.9467 135.235 7.168C137.88 2.38933 141.016 0 144.643 0C146.691 0 148.291 0.96 149.443 2.88C150.638 4.75734 151.235 7.46667 151.235 11.008C151.235 16.0853 149.827 21.9733 147.011 28.672C144.195 35.3707 140.376 42.0053 135.555 48.576C135.854 50.3253 136.344 51.584 137.027 52.352C137.71 53.0773 138.606 53.44 139.715 53.44C141.464 53.44 143 52.9493 144.323 51.968C145.646 50.944 147.331 49.216 149.379 46.784C149.891 46.1867 150.467 45.888 151.107 45.888ZM143.235 6.336C142.254 6.336 141.144 8.10667 139.907 11.648C138.67 15.1893 137.582 19.584 136.643 24.832C135.704 30.08 135.192 35.1147 135.107 39.936C138.136 34.944 140.547 29.952 142.339 24.96C144.131 19.9253 145.027 15.3387 145.027 11.2C145.027 7.95734 144.43 6.336 143.235 6.336ZM158.542 60.48C156.025 60.48 153.87 59.8613 152.078 58.624C150.329 57.344 149.006 55.68 148.11 53.632C147.214 51.584 146.766 49.3867 146.766 47.04C146.766 43.7973 147.363 40.9173 148.558 38.4C149.795 35.84 151.459 33.856 153.55 32.448C155.641 30.9973 157.987 30.272 160.59 30.272C163.107 30.272 165.262 30.912 167.054 32.192C168.846 33.4293 170.19 35.072 171.086 37.12C171.982 39.168 172.43 41.3653 172.43 43.712C172.43 46.9547 171.811 49.856 170.574 52.416C169.337 54.9333 167.651 56.9173 165.518 58.368C163.427 59.776 161.102 60.48 158.542 60.48ZM159.246 53.568C160.697 53.568 161.913 52.7787 162.894 51.2C163.918 49.6213 164.43 47.3173 164.43 44.288C164.43 41.9413 164.003 40.1707 163.15 38.976C162.297 37.7813 161.273 37.184 160.078 37.184C158.542 37.184 157.262 37.9733 156.238 39.552C155.257 41.088 154.766 43.392 154.766 46.464C154.766 48.896 155.193 50.688 156.046 51.84C156.899 52.992 157.966 53.568 159.246 53.568Z" fill="#5A4BAF"/>
</svg>
