<svg width="65" height="65" viewBox="0 0 65 65" fill="none" xmlns="http://www.w3.org/2000/svg">
<path d="M26.8042 0.40905C19.4684 1.96407 14.7144 4.54213 9.55062 9.65733C6.02613 13.1357 5.37041 14.0359 3.5262 17.8416C0.657428 23.7753 -0.0392739 26.7216 0.00170856 32.778C0.042691 36.9111 0.206621 38.2615 1.14922 41.3716C2.54262 45.9957 4.50978 49.7605 7.37855 53.1979C16.4357 64.1649 31.6811 67.9706 44.8365 62.5689C57.0083 57.5765 65.0408 45.6683 64.9999 32.5734C64.9589 14.9362 51.2708 0.777344 33.5663 0.0407562C30.9844 -0.0820084 28.4845 0.0816803 26.8042 0.40905ZM28.6075 2.5779C28.7304 2.98711 28.9353 4.01015 29.0992 4.82858C29.3042 6.13807 29.2632 6.3836 28.6075 6.3836C28.2386 6.3836 27.5419 6.09715 27.1321 5.68793C26.4354 5.07411 26.3944 5.07411 26.3944 5.89254C26.3944 6.9565 25.2879 7.07927 25.001 6.05623C24.3453 3.68278 24.3043 2.78251 24.96 2.53698C25.3289 2.41421 25.9436 2.65974 26.3944 3.10988C27.1731 3.88739 27.2141 3.88739 27.2141 3.19172C27.2141 1.80039 28.2386 1.39117 28.6075 2.5779ZM34.5089 2.61882C34.6319 3.02803 34.304 3.1508 33.3204 3.02803C32.091 2.90527 31.927 3.02803 31.927 3.88739C31.927 4.41937 32.1319 4.95135 32.4188 5.03319C32.7057 5.15596 32.7877 4.91043 32.6647 4.37844C32.5008 3.68278 32.6237 3.51909 33.5254 3.51909C34.386 3.51909 34.5909 3.7237 34.5909 4.54213C34.5909 5.31964 34.263 5.68793 33.4844 6.01531C31.2713 6.83374 29.3861 4.78766 30.4926 2.70066C30.8615 2.00499 31.2713 1.84131 32.6237 1.96407C33.6073 2.04592 34.386 2.33237 34.5089 2.61882ZM39.6727 2.94619C41.6399 4.86951 39.099 7.69309 36.599 6.3836C35.6974 5.89254 35.4925 3.60094 36.3122 2.78251C37.0089 2.08684 38.935 2.16868 39.6727 2.94619ZM42.6644 3.56001C42.9513 3.84647 43.0333 4.58305 42.9103 5.31964L42.6644 6.58821L43.648 5.44241C44.3447 4.62397 44.8365 4.37844 45.3693 4.58305C46.025 4.82858 45.943 5.03319 44.5906 6.42453C43.73 7.3248 42.7054 8.02047 42.2956 8.02047C41.6809 8.02047 41.5579 7.65217 41.5579 5.56517C41.5579 3.10988 41.8038 2.70066 42.6644 3.56001ZM23.0748 5.31964C24.4682 6.7519 24.4682 7.85678 23.1158 7.40664C22.583 7.24296 22.0503 7.44756 21.5995 7.97955C20.4929 9.28904 20.247 9.04351 20.247 6.3836C20.247 4.2966 20.37 3.92831 20.9847 3.92831C21.3945 3.92831 22.3371 4.54213 23.0748 5.31964ZM18.8536 7.81586C19.5094 9.08443 19.5503 9.32996 19.0585 9.65733C18.6487 9.90286 18.2799 9.78009 17.993 9.37088C17.7061 9.00258 17.2963 8.8389 17.0094 9.00258C16.6406 9.24812 16.6406 9.45272 16.9684 9.86194C17.5012 10.5167 17.1734 11.2942 16.4357 11.2942C15.616 11.2942 13.9357 8.02047 14.4685 7.48849C14.7964 7.16111 15.0423 7.16111 15.4111 7.52941C16.1898 8.30692 16.6816 8.10231 16.3947 7.03835C16.2308 6.42453 16.3537 5.97439 16.6816 5.85162C17.3783 5.60609 17.911 6.09715 18.8536 7.81586ZM48.7708 6.42453C49.5495 6.87466 50.1642 7.40664 50.1642 7.57033C50.1642 8.266 49.5905 8.34784 48.5659 7.73402L47.5004 7.12019L48.5249 7.93862C49.7544 8.96166 49.3446 9.57549 47.9102 8.92074C46.6807 8.34784 46.5578 8.8389 47.7053 9.57549C48.6069 10.1075 48.8118 10.885 48.0741 10.885C47.7872 10.885 46.9676 10.5167 46.2299 10.0665L44.8775 9.20719L45.984 7.40664C46.5988 6.3836 47.1725 5.56517 47.2545 5.56517C47.3364 5.56517 48.0331 5.93347 48.7708 6.42453ZM39.9186 8.38876C50.3691 11.6625 57.582 21.32 57.664 32.1642C57.705 39.6119 55.5329 44.809 50.1642 50.1697C44.7955 55.5304 39.5498 57.6993 32.1319 57.6583C18.9766 57.5356 8.15722 47.2643 7.2556 34.0057C6.43595 21.9747 15.1652 10.5167 27.2141 7.81586C30.6976 7.03835 36.3941 7.28388 39.9186 8.38876ZM53.7297 10.3121C54.3854 11.3351 54.3444 11.376 53.3199 12.3582C52.7051 12.9311 52.2133 13.6676 52.2133 14.0359C52.2133 14.5679 52.0904 14.5679 51.5986 14.1587C51.2707 13.8723 50.9839 13.1766 50.9839 12.6446C50.9839 11.7443 50.9019 11.6625 50.3691 12.1126C49.8773 12.5218 49.5905 12.5218 49.2626 12.1945C48.9347 11.8671 49.1806 11.2942 50.1232 10.1075C51.2707 8.71613 51.5986 8.51152 52.2543 8.8389C52.6642 9.08443 53.3199 9.73917 53.7297 10.3121ZM46.2299 55.3258C46.5988 55.4486 46.8856 55.8987 46.8856 56.3489C46.8856 56.7581 47.2545 57.29 47.7053 57.5356C48.8528 58.1494 48.279 58.886 46.9266 58.6405C45.984 58.4359 45.8201 58.5586 45.8201 59.2952C45.8611 60.7275 44.8365 60.3182 43.73 58.4768L42.7054 56.7581L44.0988 55.8987C45.6562 54.9575 45.4103 54.9984 46.2299 55.3258ZM22.2142 57.8629C22.3781 58.886 22.9109 59.0497 23.4027 58.1494C23.6076 57.7811 23.9355 57.6993 24.3043 57.9448C25.1649 58.4359 23.7305 62.1188 22.747 61.9551C22.3781 61.8733 22.0912 61.464 22.0503 61.0139C21.9683 59.4589 21.8454 59.377 21.1487 60.2773C20.6978 60.8502 20.247 61.0958 19.9192 60.8502C19.5094 60.6047 19.5913 60.1136 20.247 58.5995C21.1077 56.5944 21.9683 56.267 22.2142 57.8629ZM42.3776 57.9039C42.3776 58.0676 41.9677 58.4359 41.4759 58.7223C40.9022 59.0088 40.8202 59.1315 41.271 58.9678C42.5825 58.5995 42.9513 59.2543 41.9268 60.0727C41.1071 60.7684 41.0661 60.8502 41.7628 60.6047C43.1152 60.1546 43.2792 60.1546 43.4841 60.6865C43.648 61.1367 41.2301 62.4462 40.3284 62.4462C39.9186 62.4462 38.6072 58.6814 38.935 58.3949C39.3449 57.9857 41.7628 57.2082 42.0907 57.4128C42.2546 57.4947 42.3776 57.7402 42.3776 57.9039ZM28.1567 58.9269C28.7714 59.0906 29.2632 59.377 29.2632 59.5817C29.2632 59.8272 28.7714 59.9909 28.1567 60.0318C27.0501 60.0318 27.0501 60.0727 27.9517 60.4001C29.1812 60.9321 29.1402 61.7914 27.8288 61.5459C27.255 61.4231 26.8042 61.464 26.8042 61.6687C26.8042 61.8323 27.2141 62.0369 27.7058 62.1188C28.1976 62.2006 28.6484 62.4871 28.7714 62.7326C28.9763 63.3874 27.296 63.4283 25.8207 62.8963C24.8781 62.528 24.8371 62.3643 25.2059 60.9321C25.8616 58.4768 25.9026 58.354 26.4764 58.5177C26.7632 58.6405 27.5009 58.8041 28.1567 58.9269ZM37.8695 59.377C38.5662 60.1955 37.9924 61.6277 36.9679 61.6277C36.3531 61.6277 36.1892 61.8323 36.3531 62.4462C36.4761 62.8963 36.5171 63.2646 36.4351 63.2646C36.3531 63.2646 36.0253 63.3874 35.6564 63.5101C35.2056 63.6738 35.0007 63.3464 34.7958 62.1597C34.6319 61.3004 34.427 60.2773 34.345 59.909C34.2221 59.4589 34.427 59.1724 35.0827 59.0497C36.8859 58.7223 37.3777 58.7632 37.8695 59.377ZM31.7221 60.7684C31.7221 62.1188 31.8861 62.4052 32.6647 62.528C34.2221 62.7326 33.6483 63.4692 31.8451 63.592L30.0828 63.7147V61.464C30.0828 59.4589 30.1648 59.1724 30.9025 59.1724C31.5992 59.1724 31.7221 59.4589 31.7221 60.7684Z" fill="#F1F7FF"/>
<path d="M37.4597 4.58305C37.4597 5.85162 38.4023 5.72886 38.6072 4.41937C38.6892 3.80554 38.5252 3.51909 38.1154 3.51909C37.6646 3.51909 37.4597 3.88739 37.4597 4.58305Z" fill="#F1F7FF"/>
<path d="M25.1649 15.7956V20.256L20.5749 20.3788L16.0258 20.5015V27.8674V35.2333L20.5749 35.3561L25.1649 35.4788V39.7347V44.0314H32.5417H39.8776L40.0006 39.8165L40.1235 35.6425L44.9594 35.5198L49.7544 35.397V27.8674V20.2969H44.8365H39.9186V15.7956V11.2942H32.5417H25.1649V15.7956ZM34.386 15.2227C34.9187 15.7546 34.9597 16.0002 34.5499 16.2457C34.222 16.4094 33.7712 16.3685 33.4843 16.1639C32.8286 15.591 32.1319 16.0411 32.1319 17.0232C32.1319 17.9235 32.7876 18.4555 33.1565 17.8416C33.4434 17.3506 35.0007 17.2687 35.0007 17.7598C35.0007 19.1511 31.6401 19.6013 30.9024 18.2918C30.2877 17.1051 30.4107 16.2866 31.3123 15.3863C32.2959 14.4042 33.4843 14.3224 34.386 15.2227ZM34.5089 20.3788C34.7958 20.6652 35.0007 21.4427 35.0007 22.1384C35.0007 23.6934 34.345 24.3891 32.9106 24.3891C30.7795 24.3891 29.673 21.9747 31.1483 20.5425C31.886 19.765 33.8122 19.6831 34.5089 20.3788ZM23.4846 25.8623C24.3453 26.4761 24.3862 26.5989 23.7715 26.9262C23.3207 27.1718 22.8699 27.1718 22.542 26.8853C21.9273 26.3533 21.4765 26.6807 21.4765 27.7037C21.4765 28.6449 22.2961 29.136 22.706 28.4813C23.1568 27.7447 24.3862 28.2766 24.0994 29.0951C23.7715 29.9135 22.1732 30.2818 21.1486 29.7498C19.4683 28.8495 19.5503 26.2715 21.1896 25.6167C22.4191 25.1257 22.4191 25.1257 23.4846 25.8623ZM28.7714 26.3533C29.509 27.2945 29.3861 28.3585 28.4435 29.2997C26.5993 31.1412 24.5502 29.8726 24.7141 26.9262C24.7961 25.2484 27.5829 24.8392 28.7714 26.3533ZM33.3614 26.026C33.3614 26.2306 32.9106 26.4352 32.3368 26.4352C31.7631 26.4352 31.3123 26.5989 31.3123 26.8444C31.3123 27.049 31.6811 27.2536 32.1319 27.2536C32.5827 27.2536 32.9516 27.4173 32.9516 27.6628C32.9516 27.8674 32.5827 28.072 32.1729 28.072C31.6401 28.072 31.3123 28.3994 31.2303 28.9723C31.1483 29.5043 30.8205 29.9135 30.4926 29.9135C30.0418 29.9135 29.8369 29.3406 29.7549 27.7447L29.632 25.6167H31.4762C32.5417 25.6167 33.3614 25.7804 33.3614 26.026ZM37.0498 26.026C37.0498 26.2306 36.681 26.4352 36.2302 26.4352C35.7794 26.4352 35.4105 26.5989 35.4105 26.8444C35.4105 27.049 35.7794 27.2536 36.2302 27.2536C37.3367 27.2536 37.2547 27.9902 36.1482 28.1539C35.5335 28.2357 35.1646 28.604 35.0827 29.1769C35.0007 29.7089 34.6728 30.1181 34.345 30.1181C33.9351 30.1181 33.7712 29.5452 33.7712 27.8674V25.6167H35.4105C36.3121 25.6167 37.0498 25.7804 37.0498 26.026ZM41.5579 26.026C41.5579 26.2306 40.9841 26.4352 40.2464 26.4352C39.5497 26.4352 39.0989 26.5579 39.2629 26.7216C39.4268 26.8853 39.8776 27.049 40.2055 27.049C40.5743 27.049 40.9431 27.2945 41.0251 27.5401C41.1481 27.8674 40.8202 28.072 40.1645 28.072C39.5907 28.072 39.0989 28.2357 39.0989 28.4813C39.0989 28.6859 39.6727 28.8905 40.3694 28.8905C41.189 28.8905 41.5579 29.0542 41.4759 29.3815C41.353 29.7089 40.5743 29.9135 39.4678 29.9135H37.6646L37.5416 27.7447L37.4187 25.6167H39.4678C40.6153 25.6167 41.5579 25.7804 41.5579 26.026ZM45.6561 26.026C45.6561 26.2306 45.2053 26.4352 44.6316 26.4352C44.0578 26.4352 43.607 26.5989 43.607 26.7625C43.607 26.9672 44.0168 27.0899 44.4676 27.0899C44.9594 27.049 45.4512 27.2945 45.5332 27.5401C45.6561 27.8674 45.3283 28.072 44.6726 28.072C44.0988 28.072 43.607 28.2357 43.607 28.4813C43.607 28.6859 44.0578 28.8905 44.6316 28.8905C45.2873 28.8905 45.6561 29.136 45.6561 29.5043C45.6561 29.9544 45.1643 30.1181 43.8119 30.1181H41.9677V27.8674V25.6167H43.8119C44.8365 25.6167 45.6561 25.7804 45.6561 26.026ZM34.5909 31.5504C34.5909 31.9187 34.181 32.2051 33.4843 32.2051L32.3368 32.287L33.4843 32.4506C34.0991 32.5325 34.5909 32.9008 34.5909 33.2282C34.5909 33.5555 34.1401 33.842 33.4843 33.842L32.3368 33.9238L33.4843 34.0875C35.4105 34.374 34.8368 35.4379 32.7467 35.4379H30.9024V33.4737C30.9024 32.3688 31.0254 31.3458 31.1893 31.223C31.3123 31.0593 32.1729 30.9365 33.0335 30.9365C34.1401 30.9365 34.5909 31.1002 34.5909 31.5504ZM34.5909 36.8702C34.5909 37.2385 34.181 37.5249 33.4843 37.5249L32.3368 37.6068L33.4843 37.7704C34.8368 37.9751 34.7548 38.7935 33.3204 39.1618C32.3368 39.4482 32.3368 39.4482 33.4843 39.4892C34.181 39.5301 34.5909 39.7756 34.5909 40.1439C34.5909 40.594 34.0991 40.7577 32.7467 40.7577H30.9024V38.507V36.2563H32.7467C34.0991 36.2563 34.5909 36.42 34.5909 36.8702Z" fill="#F1F7FF"/>
<path d="M32.1319 22.1384C32.1319 22.9568 32.2959 23.2024 32.8696 23.0796C33.2385 22.9978 33.5663 22.5885 33.5663 22.1384C33.5663 21.6883 33.2385 21.2791 32.8696 21.1972C32.2959 21.0744 32.1319 21.32 32.1319 22.1384Z" fill="#F1F7FF"/>
<path d="M26.3944 27.0081C25.8207 27.7447 26.1485 29.0542 26.9272 28.8086C27.5419 28.5631 27.8288 27.2945 27.337 26.8035C27.0911 26.5579 26.7223 26.6398 26.3944 27.0081Z" fill="#F1F7FF"/>
<path d="M18.6077 47.3052C18.6077 48.8602 18.7717 49.3513 19.2225 49.3513C19.5503 49.3513 19.8372 48.983 19.8372 48.5328C19.8372 48.0009 20.1241 47.7144 20.6568 47.7144C21.1896 47.7144 21.4765 48.0009 21.4765 48.5328C21.4765 48.983 21.6814 49.3513 21.8863 49.3513C22.1322 49.3513 22.2961 48.4101 22.2961 47.3052C22.2961 45.2591 21.7634 44.5634 21.3536 46.0775C21.2306 46.5277 20.8618 46.896 20.4929 46.896C20.1241 46.896 19.8372 46.5686 19.8372 46.0775C19.8372 45.6274 19.5503 45.2591 19.2225 45.2591C18.7717 45.2591 18.6077 45.7502 18.6077 47.3052Z" fill="#F1F7FF"/>
<path d="M23.2797 46.9369C23.0748 47.3052 23.2797 47.3461 24.0993 47.1415C24.6731 47.0187 25.1649 47.0597 25.1649 47.2643C25.1649 47.4689 24.7551 47.7144 24.2633 47.7962C22.624 48.0009 23.1158 49.1467 24.878 49.2285C26.3944 49.2694 26.4353 49.2285 26.3124 48.0009C26.1894 46.855 26.0255 46.6914 24.878 46.5686C24.1813 46.4868 23.4846 46.6504 23.2797 46.9369ZM25.1649 48.2873C25.1649 48.4101 25.001 48.6147 24.7551 48.7374C24.5501 48.8602 24.3452 48.7784 24.3452 48.5738C24.3452 48.3282 24.5501 48.1236 24.7551 48.1236C25.001 48.1236 25.1649 48.2055 25.1649 48.2873Z" fill="#F1F7FF"/>
<path d="M27.2141 47.8781C27.2141 48.6965 27.419 49.3513 27.6239 49.3513C27.8698 49.3513 28.0337 48.8602 28.0337 48.2873C28.0337 47.6326 28.2386 47.3052 28.5665 47.428C28.8124 47.5098 29.0583 47.919 29.0583 48.3282C29.0583 48.7374 29.3042 49.1467 29.591 49.2694C30.0009 49.3922 30.1238 49.0648 30.0009 48.0827C29.8779 46.8551 29.714 46.6914 28.5665 46.5686C27.255 46.4458 27.2141 46.4868 27.2141 47.8781Z" fill="#F1F7FF"/>
<path d="M30.9025 47.7144C30.9025 48.7784 31.0664 48.942 31.968 48.942C32.5827 48.942 32.9106 49.1057 32.7467 49.3513C32.5827 49.5968 32.1319 49.6786 31.6811 49.5559C31.2713 49.3922 30.9025 49.474 30.9025 49.7195C30.9025 50.3743 31.6811 50.6607 32.7877 50.4152C33.6483 50.1697 33.7712 49.9242 33.7712 48.3282C33.7712 46.4867 33.7712 46.4867 32.3369 46.4867C31.0254 46.4867 30.9025 46.5686 30.9025 47.7144ZM32.5827 47.8372C32.5418 48.3282 31.968 48.2055 31.8041 47.6735C31.6811 47.4279 31.8451 47.2643 32.1319 47.3461C32.3778 47.4689 32.5827 47.6735 32.5827 47.8372Z" fill="#F1F7FF"/>
<path d="M34.8778 46.7323C34.7139 46.896 34.5909 47.4689 34.5909 47.9599C34.5909 49.2285 36.3941 49.7605 37.3777 48.7784C37.9105 48.2464 37.9515 47.9599 37.6236 47.387C37.1728 46.6504 35.3696 46.2412 34.8778 46.7323ZM36.64 47.9599C36.64 48.3282 36.4351 48.5328 36.1482 48.451C35.4106 48.2055 35.2876 47.3052 35.9843 47.3052C36.3532 47.3052 36.64 47.5916 36.64 47.9599Z" fill="#F1F7FF"/>
<path d="M38.4843 47.7962C38.7711 48.5328 39.2629 49.1467 39.5498 49.1467C39.8367 49.1467 40.3285 48.5328 40.6153 47.7962C40.9432 46.9778 40.9842 46.4867 40.7383 46.4867C40.4924 46.4867 40.2055 46.7732 40.0826 47.1006C39.9186 47.4279 39.6728 47.7144 39.4678 47.7144C39.2629 47.7144 39.099 47.4279 39.099 47.1006C39.099 46.7732 38.8121 46.4867 38.4843 46.4867C37.9925 46.4867 37.9925 46.6504 38.4843 47.7962Z" fill="#F1F7FF"/>
<path d="M41.7218 47.0597C41.0661 48.7374 42.9923 50.1697 44.1808 48.9011C44.5086 48.5328 44.4267 48.4919 43.73 48.6556C43.1972 48.7784 42.6644 48.6965 42.5415 48.4919C42.4185 48.2873 42.9103 48.1236 43.607 48.1236C44.6316 48.1236 44.8775 48.0009 44.6726 47.4689C44.5496 47.1006 44.4267 46.7323 44.4267 46.6504C44.4267 46.1594 41.9268 46.5686 41.7218 47.0597ZM43.607 47.3052C43.607 47.5098 43.4431 47.7144 43.1972 47.7144C42.9923 47.7144 42.7874 47.5098 42.7874 47.3052C42.7874 47.0597 42.9923 46.896 43.1972 46.896C43.4431 46.896 43.607 47.0597 43.607 47.3052Z" fill="#F1F7FF"/>
<path d="M45.2463 47.919C45.2463 48.9011 45.4513 49.3513 45.8611 49.3513C46.2299 49.3513 46.4758 48.983 46.4758 48.3282C46.4758 47.7553 46.6807 47.3052 46.8856 47.3052C47.1315 47.3052 47.2955 47.1006 47.2955 46.896C47.2955 46.6504 46.8447 46.4868 46.2709 46.4868C45.3693 46.4868 45.2463 46.6504 45.2463 47.919Z" fill="#F1F7FF"/>
<path d="M24.3453 53.4434C24.3453 54.9984 24.5092 55.4895 24.96 55.4895C25.2879 55.4895 25.5747 55.1212 25.5747 54.6711C25.5747 54.2209 25.7387 53.8526 25.9436 53.8526C26.1485 53.8526 26.4764 54.2209 26.5993 54.6711C26.7223 55.1212 27.1321 55.4895 27.4599 55.4895C28.1157 55.4895 28.1976 55.1212 27.6239 54.2619C27.419 53.8936 27.419 53.4843 27.7058 53.157C28.4845 52.1749 27.7468 51.3973 25.9846 51.3973H24.3453V53.4434ZM26.8042 52.625C26.8042 52.8296 26.5173 53.0342 26.1895 53.0342C25.8616 53.0342 25.5747 52.8296 25.5747 52.625C25.5747 52.3795 25.8616 52.2158 26.1895 52.2158C26.5173 52.2158 26.8042 52.3795 26.8042 52.625Z" fill="#F1F7FF"/>
<path d="M32.5418 53.4434C32.5418 54.5483 32.7467 55.4895 32.9516 55.4895C33.1975 55.4895 33.3615 54.5483 33.3615 53.4434C33.3615 52.2976 33.1975 51.3973 32.9516 51.3973C32.7467 51.3973 32.5418 52.2976 32.5418 53.4434Z" fill="#F1F7FF"/>
<path d="M34.386 51.8066C34.5499 52.0521 34.8368 52.1339 35.0417 52.0112C35.6155 51.6429 35.4925 51.3973 34.7548 51.3973C34.427 51.3973 34.2631 51.6019 34.386 51.8066Z" fill="#F1F7FF"/>
<path d="M40.0415 52.0112C39.5088 52.9524 39.9186 55.4895 40.5743 55.4895C41.0661 55.4895 41.4349 53.7708 41.189 52.4613C41.1481 52.2567 41.353 51.9293 41.6399 51.7656C42.0087 51.5201 41.8857 51.3973 41.271 51.3973C40.7792 51.3973 40.2055 51.6838 40.0415 52.0112Z" fill="#F1F7FF"/>
<path d="M28.6074 53.1979C28.0747 54.6302 29.3861 55.8578 30.8205 55.2849C31.4352 54.9984 31.3942 54.9166 30.4926 54.6711L29.4681 54.3437L30.6156 54.3028C31.4762 54.2619 31.7631 54.0982 31.6401 53.5253C31.4762 52.5841 28.9353 52.2976 28.6074 53.1979ZM30.4926 53.4434C30.4926 53.648 30.3287 53.8526 30.0828 53.8526C29.8779 53.8526 29.673 53.648 29.673 53.4434C29.673 53.1979 29.8779 53.0342 30.0828 53.0342C30.3287 53.0342 30.4926 53.1979 30.4926 53.4434Z" fill="#F1F7FF"/>
<path d="M34.181 54.0982C34.181 55.9396 35.1646 55.8169 35.3285 53.9345C35.4105 52.9524 35.2876 52.625 34.8367 52.625C34.345 52.625 34.181 53.0342 34.181 54.0982Z" fill="#F1F7FF"/>
<path d="M36.1073 53.1979C35.5335 54.6711 36.9679 55.8169 38.5252 55.2031C39.1809 54.9575 39.14 54.8757 38.0744 54.6301L36.8449 54.3437L37.9925 54.3028C38.8531 54.2619 39.14 54.0982 39.017 53.5253C38.8531 52.5841 36.4351 52.2976 36.1073 53.1979ZM38.0744 53.4434C37.9515 53.648 37.6646 53.8526 37.4187 53.8526C37.2138 53.8526 37.0499 53.648 37.0499 53.4434C37.0499 53.1979 37.3367 53.0342 37.7056 53.0342C38.0334 53.0342 38.1974 53.1979 38.0744 53.4434Z" fill="#F1F7FF"/>
<path d="M52.0084 10.885C52.1314 11.0896 52.3363 11.2942 52.4592 11.2942C52.5412 11.2942 52.6232 11.0896 52.6232 10.885C52.6232 10.6394 52.4182 10.4758 52.1723 10.4758C51.9674 10.4758 51.8855 10.6394 52.0084 10.885Z" fill="#F1F7FF"/>
<path d="M36.0254 60.4001C36.1483 60.6047 36.3532 60.8093 36.4762 60.8093C36.5581 60.8093 36.6401 60.6047 36.6401 60.4001C36.6401 60.1546 36.4352 59.9909 36.1893 59.9909C35.9844 59.9909 35.9024 60.1546 36.0254 60.4001Z" fill="#F1F7FF"/>
</svg>
