<svg width="52" height="65" viewBox="0 0 52 65" fill="none" xmlns="http://www.w3.org/2000/svg">
<g clip-path="url(#clip0_105_323)">
<path opacity="0.992" fill-rule="evenodd" clip-rule="evenodd" d="M-0.174652 -0.175674C5.29292 -0.175674 10.7605 -0.175674 16.228 -0.175674C16.1121 16.0461 16.2285 32.2083 16.577 48.3108C16.6933 48.3108 16.8097 48.3108 16.926 48.3108C28.4428 48.3108 39.9596 48.3108 51.4764 48.3108C51.4764 53.8154 51.4764 59.3197 51.4764 64.8243C41.7045 64.8243 31.9327 64.8243 22.1609 64.8243C22.1609 64.356 21.9282 64.1216 21.4629 64.1216C21.5228 63.7731 21.4065 63.5391 21.1139 63.4189C21.1139 63.1846 20.9976 63.0676 20.7649 63.0676C20.7649 62.8332 20.6486 62.7162 20.416 62.7162C20.416 62.4819 20.2996 62.3649 20.067 62.3649C20.067 62.1305 19.9506 62.0135 19.718 62.0135C19.718 61.7792 19.6016 61.6622 19.369 61.6622C19.2527 61.3108 19.02 61.0765 18.671 60.9595C18.671 60.7251 18.5547 60.6081 18.322 60.6081C18.322 60.3738 18.2057 60.2568 17.973 60.2568C17.973 60.0224 17.8567 59.9054 17.624 59.9054C17.624 59.6711 17.5077 59.5541 17.275 59.5541C17.275 59.3197 17.1587 59.2027 16.926 59.2027C16.926 58.9684 16.8097 58.8514 16.577 58.8514C16.4607 58.5 16.228 58.2656 15.879 58.1487C15.879 57.9143 15.7627 57.7973 15.53 57.7973C15.53 57.5629 15.4137 57.4459 15.1811 57.4459C15.1811 57.2116 15.0647 57.0946 14.8321 57.0946C14.8321 56.8602 14.7157 56.7432 14.4831 56.7432C14.4831 56.5089 14.3667 56.3919 14.1341 56.3919C14.1341 56.1575 14.0178 56.0405 13.7851 56.0405C13.6688 55.6892 13.4361 55.4548 13.0871 55.3378C13.0871 55.1035 12.9708 54.9865 12.7381 54.9865C12.7381 54.7521 12.6218 54.6351 12.3891 54.6351C12.3891 54.4008 12.2728 54.2838 12.0401 54.2838C12.0401 54.0494 11.9238 53.9324 11.6911 53.9324C11.5748 53.5811 11.3421 53.3467 10.9931 53.2297C10.9931 52.9954 10.8768 52.8784 10.6441 52.8784C10.6441 52.644 10.5278 52.527 10.2951 52.527C10.2951 52.2927 10.1788 52.1757 9.94615 52.1757C9.94615 51.9413 9.82983 51.8243 9.59716 51.8243C9.59716 51.59 9.48084 51.473 9.24817 51.473C9.24817 51.2386 9.13185 51.1216 8.89917 51.1216C8.6665 50.8873 8.43386 50.6533 8.20119 50.4189C8.20119 50.1846 8.08487 50.0676 7.85219 50.0676C7.85219 49.8332 7.73587 49.7162 7.5032 49.7162C7.5032 49.4819 7.38688 49.3649 7.15421 49.3649C7.15421 49.1305 7.03789 49.0135 6.80521 49.0135C6.80521 48.7792 6.68889 48.6622 6.45622 48.6622C6.3399 48.3108 6.10723 48.0765 5.75823 47.9595C5.75823 47.7251 5.64191 47.6081 5.40924 47.6081C5.40924 47.3738 5.29292 47.2568 5.06025 47.2568C5.06025 47.0224 4.94393 46.9054 4.71125 46.9054C4.71125 46.6711 4.59493 46.5541 4.36226 46.5541C4.36226 46.3197 4.24594 46.2027 4.01327 46.2027C4.01327 45.9683 3.89695 45.8514 3.66427 45.8514C3.66427 45.617 3.54795 45.5 3.31528 45.5C3.31528 45.2657 3.19895 45.1487 2.96629 45.1487C2.96629 44.9143 2.84996 44.7973 2.61729 44.7973C2.61729 44.5629 2.50096 44.4459 2.2683 44.4459C2.2683 44.2116 2.15197 44.0946 1.91931 44.0946C1.91931 43.8602 1.80298 43.7432 1.57031 43.7432C1.57031 43.5089 1.45398 43.3919 1.22132 43.3919C1.10499 43.0405 0.872328 42.8062 0.523335 42.6892C0.40408 42.3948 0.171417 42.2774 -0.174652 42.3378C-0.174652 28.1667 -0.174652 13.9955 -0.174652 -0.175674Z" fill="#F1F7FF"/>
<path opacity="0.01" fill-rule="evenodd" clip-rule="evenodd" d="M16.5771 -0.175674C16.6934 -0.175674 16.8098 -0.175674 16.9261 -0.175674C16.9261 15.7522 16.9261 31.6802 16.9261 47.6081C28.4435 47.5494 39.9603 47.6081 51.4764 47.7838C39.9007 47.8428 28.3838 48.0185 16.9261 48.3108C16.8098 48.3108 16.6934 48.3108 16.5771 48.3108C16.5771 32.1486 16.5771 15.9865 16.5771 -0.175674Z" fill="#FEFFFE"/>
<path fill-rule="evenodd" clip-rule="evenodd" d="M19.718 -0.175674C30.1878 -0.175674 40.6576 -0.175674 51.1274 -0.175674C51.1274 5.2117 51.1274 10.5991 51.1274 15.9865C46.0087 15.9865 40.8904 15.9865 35.7717 15.9865C30.3041 10.7162 24.9529 5.32884 19.718 -0.175674Z" fill="#F1F7FF"/>
<path opacity="0.251" fill-rule="evenodd" clip-rule="evenodd" d="M51.1275 -0.175674C51.2437 -0.175674 51.3602 -0.175674 51.4765 -0.175674C51.4765 5.32884 51.4765 10.8333 51.4765 16.3378C46.2963 16.2221 41.1777 16.3392 36.1208 16.6892C35.3537 16.7212 35.2375 16.487 35.7718 15.9865C40.8904 15.9865 46.0088 15.9865 51.1275 15.9865C51.1275 10.5991 51.1275 5.2117 51.1275 -0.175674Z" fill="#808F9C"/>
<path opacity="0.01" fill-rule="evenodd" clip-rule="evenodd" d="M36.1207 16.6892C41.1242 16.6306 46.1267 16.6892 51.1274 16.8649C46.0649 17.1556 41.0628 17.097 36.1207 16.6892Z" fill="#FEFFFE"/>
<path opacity="0.015" fill-rule="evenodd" clip-rule="evenodd" d="M20.4159 24.0676C20.1832 24.0676 20.0669 24.1847 20.0669 24.4189C19.6224 24.1767 19.6224 23.8839 20.0669 23.5405C30.5367 23.3063 41.0065 23.3063 51.4763 23.5405C41.0637 23.5994 30.7102 23.7751 20.4159 24.0676Z" fill="#FEFFFE"/>
<path fill-rule="evenodd" clip-rule="evenodd" d="M51.1274 24.4189C51.1274 29.6892 51.1274 34.9595 51.1274 40.2297C46.0087 40.2297 40.8903 40.2297 35.7717 40.2297C35.8104 40.0129 35.9266 39.8373 36.1206 39.7027C31.1184 34.6667 26.1162 29.6306 21.1139 24.5946C31.1177 24.4189 41.1221 24.3604 51.1274 24.4189Z" fill="#F1F7FF"/>
<path fill-rule="evenodd" clip-rule="evenodd" d="M20.4159 24.0676C30.653 24.0676 40.8903 24.0676 51.1273 24.0676C51.1273 24.1847 51.1273 24.3018 51.1273 24.4189C41.122 24.3604 31.1177 24.4189 21.1139 24.5946C26.1161 29.6306 31.1184 34.6667 36.1206 39.7027C35.9265 39.8373 35.8103 40.0129 35.7716 40.2297C30.4204 35.0766 25.1855 29.8063 20.0669 24.4189C20.0669 24.1847 20.1832 24.0676 20.4159 24.0676Z" fill="#41586B"/>
<path opacity="0.349" fill-rule="evenodd" clip-rule="evenodd" d="M51.1273 24.0676C51.4749 29.5104 51.5914 35.0149 51.4763 40.5811C46.3576 40.5811 41.2393 40.5811 36.1206 40.5811C36.0044 40.5811 35.8878 40.5811 35.7716 40.5811C35.7716 40.4641 35.7716 40.3467 35.7716 40.2297C40.8903 40.2297 46.0086 40.2297 51.1273 40.2297C51.1273 34.9595 51.1273 29.6892 51.1273 24.4189C51.1273 24.3018 51.1273 24.1847 51.1273 24.0676Z" fill="#6E808F"/>
<path opacity="0.015" fill-rule="evenodd" clip-rule="evenodd" d="M35.7716 40.5811C35.8878 40.5811 36.0043 40.5811 36.1205 40.5811C41.1789 40.8731 46.2975 41.0487 51.4762 41.1081C46.2414 41.3425 41.0065 41.3425 35.7716 41.1081C35.3395 40.8657 35.3395 40.69 35.7716 40.5811Z" fill="#FEFFFE"/>
<path opacity="0.01" fill-rule="evenodd" clip-rule="evenodd" d="M-0.174652 42.6892C0.0587883 42.6892 0.175508 42.8066 0.175508 43.0417C0.0587884 42.9243 -0.057932 42.8066 -0.174652 42.6892Z" fill="#FEFFFE"/>
<path opacity="0.01" fill-rule="evenodd" clip-rule="evenodd" d="M0.523432 42.6892C0.872425 42.8062 1.10509 43.0405 1.22142 43.3919C1.22142 43.6262 1.22142 43.8602 1.22142 44.0946C0.756095 43.8602 0.407102 43.5089 0.174438 43.0405C0.407102 43.0405 0.523432 42.9235 0.523432 42.6892Z" fill="#FEFFFE"/>
<path opacity="0.01" fill-rule="evenodd" clip-rule="evenodd" d="M1.57026 43.7432C1.80292 43.7432 1.91925 43.8602 1.91925 44.0946C1.91925 44.3289 1.91925 44.5629 1.91925 44.7973C1.57026 44.6803 1.3376 44.4459 1.22127 44.0946C1.45393 44.0946 1.57026 43.9776 1.57026 43.7432Z" fill="#EDEDED"/>
<path opacity="0.01" fill-rule="evenodd" clip-rule="evenodd" d="M2.26821 44.446C2.50088 44.446 2.61721 44.563 2.61721 44.7973C2.61721 45.0317 2.61721 45.2657 2.61721 45.5C2.26821 45.383 2.03555 45.1487 1.91922 44.7973C2.15188 44.7973 2.26821 44.6803 2.26821 44.446Z" fill="#FEFFFE"/>
<path opacity="0.01" fill-rule="evenodd" clip-rule="evenodd" d="M2.96618 45.1487C3.19884 45.1487 3.31517 45.2657 3.31517 45.5C3.54785 45.5 3.66417 45.617 3.66417 45.8514C3.66417 46.0857 3.66417 46.3197 3.66417 46.5541C3.19884 46.3197 2.84985 45.9684 2.61719 45.5C2.84985 45.5 2.96618 45.383 2.96618 45.1487Z" fill="#FEFFFE"/>
<path opacity="0.01" fill-rule="evenodd" clip-rule="evenodd" d="M4.01324 46.2027C4.24591 46.2027 4.36223 46.3197 4.36223 46.554C4.36223 46.7884 4.36223 47.0224 4.36223 47.2568C4.01324 47.1398 3.78057 46.9054 3.66425 46.554C3.89692 46.554 4.01324 46.437 4.01324 46.2027Z" fill="#FEFFFE"/>
<path opacity="0.01" fill-rule="evenodd" clip-rule="evenodd" d="M4.71119 46.9054C4.94386 46.9054 5.06018 47.0224 5.06018 47.2568C5.06018 47.4911 5.06018 47.7251 5.06018 47.9595C4.71119 47.8425 4.47852 47.6081 4.3622 47.2568C4.59487 47.2568 4.71119 47.1398 4.71119 46.9054Z" fill="#EDEDED"/>
<path opacity="0.01" fill-rule="evenodd" clip-rule="evenodd" d="M5.40916 47.6081C5.64183 47.6081 5.75815 47.7251 5.75815 47.9595C5.65848 48.8143 5.42581 48.8143 5.06017 47.9595C5.29284 47.9595 5.40916 47.8425 5.40916 47.6081Z" fill="#FEFFFE"/>
<path opacity="0.01" fill-rule="evenodd" clip-rule="evenodd" d="M6.45611 48.6622C6.68878 48.6622 6.8051 48.7792 6.8051 49.0135C6.8051 49.2479 6.8051 49.4819 6.8051 49.7162C6.11368 49.5036 5.99732 49.1523 6.45611 48.6622Z" fill="#FEFFFE"/>
<path opacity="0.01" fill-rule="evenodd" clip-rule="evenodd" d="M7.15417 49.3649C7.38684 49.3649 7.50316 49.4819 7.50316 49.7162C7.50316 49.9506 7.50316 50.1846 7.50316 50.4189C7.15417 50.3019 6.9215 50.0676 6.80518 49.7162C7.03785 49.7162 7.15417 49.5992 7.15417 49.3649Z" fill="#FEFFFE"/>
<path opacity="0.01" fill-rule="evenodd" clip-rule="evenodd" d="M7.85214 50.0676C8.08481 50.0676 8.20113 50.1846 8.20113 50.4189C8.10146 51.2738 7.86878 51.2738 7.50314 50.4189C7.73582 50.4189 7.85214 50.3019 7.85214 50.0676Z" fill="#FEFFFE"/>
<path opacity="0.01" fill-rule="evenodd" clip-rule="evenodd" d="M8.89909 51.1216C9.13176 51.1216 9.24808 51.2386 9.24808 51.473C9.24808 51.7073 9.24808 51.9413 9.24808 52.1757C8.55665 51.9631 8.4403 51.6117 8.89909 51.1216Z" fill="#FEFFFE"/>
<path opacity="0.01" fill-rule="evenodd" clip-rule="evenodd" d="M9.59715 51.8243C9.82982 51.8243 9.94614 51.9413 9.94614 52.1757C9.94614 52.41 9.94614 52.644 9.94614 52.8784C9.59715 52.7614 9.36447 52.527 9.24815 52.1757C9.48083 52.1757 9.59715 52.0587 9.59715 51.8243Z" fill="#FEFFFE"/>
<path opacity="0.01" fill-rule="evenodd" clip-rule="evenodd" d="M10.2951 52.527C10.5278 52.527 10.6441 52.644 10.6441 52.8784C10.6441 53.1127 10.6441 53.3467 10.6441 53.5811C10.2951 53.4641 10.0624 53.2297 9.94612 52.8784C10.1788 52.8784 10.2951 52.7614 10.2951 52.527Z" fill="#EDEDED"/>
<path opacity="0.01" fill-rule="evenodd" clip-rule="evenodd" d="M10.9931 53.2297C11.3421 53.3467 11.5747 53.5811 11.6911 53.9324C11.6911 54.1668 11.6911 54.4008 11.6911 54.6351C11.2257 54.4008 10.8767 54.0494 10.6441 53.5811C10.8767 53.5811 10.9931 53.4641 10.9931 53.2297Z" fill="#FEFFFE"/>
<path opacity="0.01" fill-rule="evenodd" clip-rule="evenodd" d="M12.0401 54.2838C12.2728 54.2838 12.3891 54.4008 12.3891 54.6351C12.3891 54.8695 12.3891 55.1035 12.3891 55.3378C12.0401 55.2208 11.8075 54.9865 11.6911 54.6351C11.9238 54.6351 12.0401 54.5181 12.0401 54.2838Z" fill="#FEFFFE"/>
<path opacity="0.01" fill-rule="evenodd" clip-rule="evenodd" d="M12.7381 54.9865C12.9708 54.9865 13.0871 55.1035 13.0871 55.3378C13.0871 55.5722 13.0871 55.8062 13.0871 56.0405C12.7381 55.9235 12.5054 55.6892 12.3891 55.3378C12.6218 55.3378 12.7381 55.2208 12.7381 54.9865Z" fill="#FEFFFE"/>
<path opacity="0.01" fill-rule="evenodd" clip-rule="evenodd" d="M13.0871 56.0405C13.3197 56.0405 13.5524 56.0405 13.785 56.0405C14.0177 56.0405 14.134 56.1575 14.134 56.3919C14.134 56.6262 14.134 56.8602 14.134 57.0946C13.6687 56.8602 13.3197 56.5089 13.0871 56.0405Z" fill="#FEFFFE"/>
<path opacity="0.01" fill-rule="evenodd" clip-rule="evenodd" d="M14.4831 56.7432C14.7158 56.7432 14.8321 56.8602 14.8321 57.0946C14.8321 57.3289 14.8321 57.5629 14.8321 57.7973C14.4831 57.6803 14.2504 57.4459 14.1341 57.0946C14.3668 57.0946 14.4831 56.9776 14.4831 56.7432Z" fill="#EDEDED"/>
<path opacity="0.01" fill-rule="evenodd" clip-rule="evenodd" d="M15.1811 57.4459C15.4137 57.4459 15.53 57.5629 15.53 57.7973C15.53 58.0316 15.53 58.2656 15.53 58.5C15.1811 58.383 14.9484 58.1486 14.8321 57.7973C15.0647 57.7973 15.1811 57.6803 15.1811 57.4459Z" fill="#FEFFFE"/>
<path opacity="0.01" fill-rule="evenodd" clip-rule="evenodd" d="M15.879 58.1487C16.228 58.2657 16.4607 58.5 16.577 58.8514C16.577 59.0857 16.577 59.3197 16.577 59.5541C16.1117 59.3197 15.7627 58.9684 15.53 58.5C15.7627 58.5 15.879 58.383 15.879 58.1487Z" fill="#FEFFFE"/>
<path opacity="0.01" fill-rule="evenodd" clip-rule="evenodd" d="M16.9261 59.2027C17.1588 59.2027 17.2751 59.3197 17.2751 59.554C17.2751 59.7884 17.2751 60.0224 17.2751 60.2568C16.9261 60.1398 16.6934 59.9054 16.5771 59.554C16.8098 59.554 16.9261 59.437 16.9261 59.2027Z" fill="#FEFFFE"/>
<path opacity="0.01" fill-rule="evenodd" clip-rule="evenodd" d="M17.624 59.9054C17.8567 59.9054 17.973 60.0224 17.973 60.2568C17.973 60.4911 17.973 60.7251 17.973 60.9595C17.624 60.8425 17.3914 60.6081 17.275 60.2568C17.5077 60.2568 17.624 60.1398 17.624 59.9054Z" fill="#FEFFFE"/>
<path opacity="0.01" fill-rule="evenodd" clip-rule="evenodd" d="M18.322 60.6081C18.5547 60.6081 18.671 60.7251 18.671 60.9595C18.5713 61.8143 18.3386 61.8143 17.973 60.9595C18.2057 60.9595 18.322 60.8425 18.322 60.6081Z" fill="#FEFFFE"/>
<path opacity="0.01" fill-rule="evenodd" clip-rule="evenodd" d="M19.369 61.6622C19.6016 61.6622 19.7179 61.7792 19.7179 62.0135C19.7179 62.2479 19.7179 62.4819 19.7179 62.7162C19.0265 62.5037 18.9102 62.1523 19.369 61.6622Z" fill="#FEFFFE"/>
<path opacity="0.01" fill-rule="evenodd" clip-rule="evenodd" d="M20.067 62.3649C20.2997 62.3649 20.416 62.4819 20.416 62.7162C20.416 62.9506 20.416 63.1846 20.416 63.4189C20.067 63.3019 19.8343 63.0676 19.718 62.7162C19.9507 62.7162 20.067 62.5992 20.067 62.3649Z" fill="#FEFFFE"/>
<path opacity="0.01" fill-rule="evenodd" clip-rule="evenodd" d="M20.765 63.0676C20.9977 63.0676 21.114 63.1846 21.114 63.4189C21.114 63.6533 21.114 63.8873 21.114 64.1216C20.765 64.0046 20.5323 63.7703 20.416 63.4189C20.6487 63.4189 20.765 63.3019 20.765 63.0676Z" fill="#FEFFFE"/>
<path opacity="0.01" fill-rule="evenodd" clip-rule="evenodd" d="M21.1139 64.1216C21.2306 64.1216 21.3474 64.1216 21.4641 64.1216C21.4641 64.239 21.4641 64.3567 21.4641 64.4741C21.3474 64.3567 21.2306 64.239 21.1139 64.1216Z" fill="#FEFFFE"/>
<path opacity="0.01" fill-rule="evenodd" clip-rule="evenodd" d="M21.4628 64.473C21.6963 64.473 21.813 64.5904 21.813 64.8255C21.6963 64.7081 21.5795 64.5904 21.4628 64.473Z" fill="#FEFFFE"/>
</g>
<defs>
<clipPath id="clip0_105_323">
<rect width="52" height="65" fill="white"/>
</clipPath>
</defs>
</svg>
