<svg width="106" height="65" viewBox="0 0 106 65" fill="none" xmlns="http://www.w3.org/2000/svg">
<path opacity="0.968" fill-rule="evenodd" clip-rule="evenodd" d="M3.34448 2.94531C7.53369 2.91147 11.7223 2.94531 15.9104 3.04687C17.2378 3.82439 17.4742 4.87388 16.6198 6.19531C12.7593 10.8521 8.87464 15.4901 4.9659 20.1094C4.19682 20.2794 3.45367 20.2117 2.73645 19.9062C2.4898 19.5716 2.32091 19.1992 2.22976 18.7891C2.09464 13.9818 2.09464 9.17448 2.22976 4.36718C2.41993 3.738 2.7915 3.26403 3.34448 2.94531Z" fill="#F1F7FF"/>
<path opacity="0.975" fill-rule="evenodd" clip-rule="evenodd" d="M36.1777 2.94532C46.9198 2.91145 57.6617 2.94532 68.4034 3.04688C70.2773 3.85125 70.7163 5.17156 69.7208 7.00781C67.5489 9.65809 65.4546 12.3664 63.4378 15.1328C62.4222 16.4891 61.1725 16.7937 59.6883 16.0469C57.6615 13.5417 55.6347 11.0365 53.6079 8.53125C52.2729 7.86943 51.1582 8.17412 50.2638 9.44531C48.6182 11.7041 46.8955 13.9046 45.0955 16.0469C43.6113 16.7937 42.3616 16.4891 41.346 15.1328C39.0385 12.2111 36.8091 9.23193 34.6577 6.19531C34.3547 4.70472 34.8613 3.6214 36.1777 2.94532Z" fill="#F1F7FF"/>
<path opacity="0.968" fill-rule="evenodd" clip-rule="evenodd" d="M89.6846 2.94531C93.8738 2.91147 98.0625 2.94531 102.251 3.04687C102.613 3.20622 102.917 3.44321 103.163 3.75781C103.495 8.8232 103.562 13.9013 103.365 18.9922C103.222 19.3132 103.053 19.6179 102.859 19.9062C102.141 20.2117 101.398 20.2794 100.629 20.1094C96.6095 15.2682 92.5896 10.4271 88.5699 5.58593C88.1856 4.35388 88.5573 3.47368 89.6846 2.94531Z" fill="#F1F7FF"/>
<path opacity="0.979" fill-rule="evenodd" clip-rule="evenodd" d="M24.4229 3.14845C25.6229 3.02198 26.6025 3.42823 27.3617 4.3672C32.3856 10.6892 37.4864 16.9522 42.6638 23.1563C43.7716 23.6738 44.7514 23.5044 45.6026 22.6484C47.2767 20.4447 48.9995 18.2781 50.7709 16.1484C52.4506 15.1619 53.8355 15.5004 54.9257 17.1641C56.4403 19.217 58.0279 21.2144 59.6886 23.1563C60.4993 23.5625 61.3101 23.5625 62.1208 23.1563C67.2981 16.9522 72.3989 10.6892 77.4229 4.3672C78.7814 2.83728 80.2001 2.76956 81.6791 4.16407C88.2513 12.394 94.8721 20.5867 101.541 28.7422C101.677 29.4192 101.677 30.0964 101.541 30.7734C94.9883 39.1016 88.4349 47.4297 81.8818 55.7578C80.9417 56.9841 79.7595 57.2888 78.3349 56.6719C74.3397 51.9236 70.4214 47.1163 66.5797 42.25C65.1591 41.6567 64.0444 42.0292 63.2355 43.3672C60.2628 47.1589 57.2904 50.9505 54.3177 54.7422C53.0342 55.8255 51.7504 55.8255 50.4668 54.7422C47.1956 50.5225 43.8515 46.3584 40.4343 42.25C39.6974 41.8643 38.9542 41.8643 38.2049 42.25C34.5135 46.694 30.8992 51.1964 27.3617 55.7578C25.7451 57.4291 24.1914 57.3613 22.7001 55.5547C16.2632 47.3251 9.77758 39.1322 3.24314 30.9766C2.81225 30.0613 2.8798 29.1812 3.44581 28.3359C9.93147 20.3464 16.4171 12.3568 22.9028 4.3672C23.3313 3.83485 23.8379 3.4286 24.4229 3.14845ZM25.0309 13.3047C25.6817 13.4088 26.2559 13.6796 26.7537 14.1172C30.5277 18.9157 34.3786 23.6553 38.3062 28.3359C39.048 29.2624 39.1155 30.2104 38.5089 31.1797C34.4215 36.2239 30.3343 41.2683 26.247 46.3125C25.5037 46.7188 24.7607 46.7188 24.0175 46.3125C19.9059 41.2868 15.8186 36.2426 11.7556 31.1797C11.153 30.2004 11.2206 29.2524 11.9582 28.3359C15.8183 23.723 19.6016 19.0511 23.3081 14.3203C23.7942 13.7905 24.3683 13.4519 25.0309 13.3047ZM79.551 13.3047C80.2018 13.4088 80.776 13.6796 81.2737 14.1172C85.0478 18.9157 88.8986 23.6553 92.8263 28.3359C93.2921 29.0912 93.4272 29.9037 93.2317 30.7734C89.1538 36.0118 84.9989 41.1915 80.767 46.3125C80.0238 46.7188 79.2808 46.7188 78.5376 46.3125C74.5763 41.598 70.6916 36.8245 66.8837 31.9922C65.8196 30.9689 65.6169 29.8177 66.2756 28.5391C70.2033 23.8585 74.0542 19.1188 77.8282 14.3203C78.3142 13.7905 78.8884 13.4519 79.551 13.3047ZM51.9869 25.8984C53.171 25.9657 54.083 26.5074 54.7231 27.5234C56.4699 29.884 58.294 32.1862 60.1953 34.4297C60.6757 35.4685 60.5405 36.4163 59.79 37.2734C57.8214 39.5846 55.9296 41.9545 54.115 44.3828C52.9665 45.4661 51.8181 45.4661 50.6695 44.3828C48.855 41.9545 46.9632 39.5846 44.9946 37.2734C44.2538 36.4102 44.1188 35.4624 44.5892 34.4297C46.6113 31.8275 48.6717 29.2545 50.7709 26.7109C51.1337 26.3421 51.539 26.0713 51.9869 25.8984Z" fill="#F1F7FF"/>
<path opacity="0.951" fill-rule="evenodd" clip-rule="evenodd" d="M23.8146 26.9141C27.1487 26.6321 28.5338 28.1216 27.9695 31.3828C26.8479 33.3147 25.2603 33.8225 23.2066 32.9062C21.6954 31.5646 21.3914 29.9735 22.2946 28.1328C22.723 27.6004 23.2297 27.1942 23.8146 26.9141Z" fill="#F1F7FF"/>
<path opacity="0.952" fill-rule="evenodd" clip-rule="evenodd" d="M78.3348 26.9141C80.9106 26.5184 82.397 27.6019 82.7937 30.1641C82.4629 32.5305 81.1116 33.58 78.7401 33.3125C76.6331 32.6113 75.8562 31.1557 76.4093 28.9453C76.8191 28.0272 77.461 27.3502 78.3348 26.9141Z" fill="#F1F7FF"/>
<path opacity="0.977" fill-rule="evenodd" clip-rule="evenodd" d="M100.832 40.5234C101.377 40.4901 101.917 40.5241 102.453 40.625C102.893 40.7942 103.197 41.0989 103.365 41.5391C103.565 48.2595 103.498 54.9626 103.163 61.6484C102.917 61.9631 102.613 62.1999 102.251 62.3594C96.6307 62.5572 91.0234 62.4896 85.4285 62.1563C84.8489 61.4086 84.68 60.5621 84.9218 59.6172C90.1916 53.219 95.4951 46.8544 100.832 40.5234Z" fill="#F1F7FF"/>
<path opacity="0.983" fill-rule="evenodd" clip-rule="evenodd" d="M3.54675 40.7266C4.60884 40.5311 5.45332 40.8698 6.08022 41.7422C10.868 47.6921 15.7322 53.5827 20.6729 59.4141C21.5274 60.7356 21.2909 61.7849 19.9636 62.5625C14.5589 62.698 9.15415 62.698 3.74943 62.5625C3.37876 62.507 3.07474 62.3376 2.83739 62.0547C2.5025 55.2335 2.43493 48.3949 2.63471 41.5391C2.91781 41.2201 3.22182 40.9492 3.54675 40.7266Z" fill="#F1F7FF"/>
<path opacity="0.968" fill-rule="evenodd" clip-rule="evenodd" d="M39.2182 48.4453C40.1456 48.4591 40.855 48.8654 41.3463 49.6641C43.8646 53.0185 46.4319 56.3361 49.048 59.6172C49.4349 60.5583 49.2661 61.4045 48.5413 62.1562C42.7438 62.4898 36.9336 62.5574 31.1111 62.3594C30.1883 62.1105 29.7153 61.5012 29.6924 60.5312C29.7923 59.9586 30.0288 59.4508 30.4018 59.0078C33.0465 55.7483 35.6138 52.4304 38.1035 49.0547C38.4837 48.8294 38.8552 48.6263 39.2182 48.4453Z" fill="#F1F7FF"/>
<path opacity="0.968" fill-rule="evenodd" clip-rule="evenodd" d="M65.1606 48.4453C65.9214 48.4569 66.5633 48.7277 67.086 49.2578C69.6043 52.6122 72.1716 55.9299 74.7877 59.2109C75.5238 60.2763 75.4225 61.258 74.4837 62.1562C68.6912 62.4914 62.8811 62.559 57.0535 62.3594C55.8147 61.6998 55.5107 60.7181 56.1415 59.4141C58.7862 56.1545 61.3535 52.8367 63.8432 49.4609C64.209 48.9885 64.6482 48.6501 65.1606 48.4453Z" fill="#F1F7FF"/>
</svg>
