<svg width="40" height="40" viewBox="0 0 40 40" fill="none" xmlns="http://www.w3.org/2000/svg">
<path d="M20 3.87097C21.0689 3.87097 21.9355 3.00441 21.9355 1.93548C21.9355 0.866555 21.0689 0 20 0V3.87097ZM40 20C40 18.9311 39.1334 18.0645 38.0645 18.0645C36.9956 18.0645 36.129 18.9311 36.129 20H40ZM38.0645 3.87097C39.1334 3.87097 40 3.00441 40 1.93548C40 0.866555 39.1334 0 38.0645 0V3.87097ZM27.5148 0C26.4459 0 25.5794 0.866555 25.5794 1.93548C25.5794 3.00441 26.4459 3.87097 27.5148 3.87097V0ZM40 1.93548C40 0.866555 39.1334 0 38.0645 0C36.9956 0 36.129 0.866555 36.129 1.93548H40ZM36.129 12.6219C36.129 13.6908 36.9956 14.5574 38.0645 14.5574C39.1334 14.5574 40 13.6908 40 12.6219H36.129ZM39.433 3.30408C40.1889 2.54823 40.1889 1.32274 39.433 0.56689C38.6772 -0.188955 37.4519 -0.188955 36.696 0.56689L39.433 3.30408ZM18.6315 18.6315C17.8756 19.3874 17.8756 20.6126 18.6315 21.3685C19.3874 22.1244 20.6126 22.1244 21.3685 21.3685L18.6315 18.6315ZM20 0H12.2581V3.87097H20V0ZM12.2581 0C5.48813 0 0 5.48813 0 12.2581H3.87097C3.87097 7.62599 7.62599 3.87097 12.2581 3.87097V0ZM0 12.2581V27.7419H3.87097V12.2581H0ZM0 27.7419C0 34.512 5.48813 40 12.2581 40V36.129C7.62599 36.129 3.87097 32.3739 3.87097 27.7419H0ZM12.2581 40H27.7419V36.129H12.2581V40ZM27.7419 40C34.512 40 40 34.512 40 27.7419H36.129C36.129 32.3739 32.3739 36.129 27.7419 36.129V40ZM40 27.7419V20H36.129V27.7419H40ZM38.0645 0H27.5148V3.87097H38.0645V0ZM36.129 1.93548V12.6219H40V1.93548H36.129ZM36.696 0.56689L18.6315 18.6315L21.3685 21.3685L39.433 3.30408L36.696 0.56689Z" fill="white"/>
</svg>
