<svg width="40" height="40" viewBox="0 0 40 40" fill="none" xmlns="http://www.w3.org/2000/svg">
<g clip-path="url(#clip0_105_599)">
<path fill-rule="evenodd" clip-rule="evenodd" d="M19.9987 0.416656C8.95498 0.416656 0 9.40588 0 20.4972C0 29.3672 5.72999 36.8932 13.6787 39.5487C14.6787 39.7332 15.0437 39.1132 15.0437 38.5811C15.0437 38.1042 15.0262 36.8417 15.0162 35.1664C9.45248 36.3799 8.27876 32.4745 8.27876 32.4745C7.37001 30.1554 6.05876 29.5379 6.05876 29.5379C4.24251 28.2917 6.19624 28.3168 6.19624 28.3168C8.20249 28.4586 9.25873 30.3862 9.25873 30.3862C11.0437 33.4546 13.94 32.5686 15.08 32.0541C15.2613 30.7565 15.7787 29.8717 16.35 29.3698C11.9087 28.8628 7.23999 27.1409 7.23999 19.4468C7.23999 17.2544 8.01876 15.4623 9.29876 14.058C9.09251 13.5498 8.40626 11.5092 9.49376 8.74455C9.49376 8.74455 11.1737 8.2049 14.9937 10.8027C16.59 10.3571 18.3 10.135 20.0013 10.1262C21.7 10.135 23.4112 10.3571 25.0087 10.8027C28.8262 8.2049 30.5025 8.74455 30.5025 8.74455C31.5938 11.5092 30.9075 13.5498 30.7012 14.058C31.9837 15.4623 32.7575 17.2544 32.7575 19.4468C32.7575 27.1598 28.0813 28.8577 23.6263 29.3546C24.3438 29.9746 24.9838 31.1995 24.9838 33.0731C24.9838 35.7575 24.9587 37.9222 24.9587 38.5811C24.9587 39.1182 25.3188 39.7432 26.3338 39.5461C34.275 36.8856 40 29.3647 40 20.4972C40 9.40588 31.045 0.416656 19.9987 0.416656Z" fill="url(#paint0_linear_105_599)"/>
</g>
<defs>
<linearGradient id="paint0_linear_105_599" x1="20" y1="0.416656" x2="20" y2="39.5833" gradientUnits="userSpaceOnUse">
<stop stop-color="#009EE9"/>
<stop offset="1" stop-color="#A42CD6"/>
</linearGradient>
<clipPath id="clip0_105_599">
<rect width="40" height="40" fill="white"/>
</clipPath>
</defs>
</svg>
